<svg id="visual" viewBox="0 0 900 600" width="900" height="600" xmlns="http://www.w3.org/2000/svg" xmlns:xlink="http://www.w3.org/1999/xlink" version="1.1"><path d="M0 205L13.7 205C27.3 205 54.7 205 82 188C109.3 171 136.7 137 163.8 129C191 121 218 139 245.2 149C272.3 159 299.7 161 327 156C354.3 151 381.7 139 409 136C436.3 133 463.7 139 491 141C518.3 143 545.7 141 573 145C600.3 149 627.7 159 654.8 169C682 179 709 189 736.2 202C763.3 215 790.7 231 818 234C845.3 237 872.7 227 886.3 222L900 217L900 0L886.3 0C872.7 0 845.3 0 818 0C790.7 0 763.3 0 736.2 0C709 0 682 0 654.8 0C627.7 0 600.3 0 573 0C545.7 0 518.3 0 491 0C463.7 0 436.3 0 409 0C381.7 0 354.3 0 327 0C299.7 0 272.3 0 245.2 0C218 0 191 0 163.8 0C136.7 0 109.3 0 82 0C54.7 0 27.3 0 13.7 0L0 0Z" fill="#6198ff"></path><path d="M0 295L13.7 306C27.3 317 54.7 339 82 331C109.3 323 136.7 285 163.8 274C191 263 218 279 245.2 291C272.3 303 299.7 311 327 302C354.3 293 381.7 267 409 255C436.3 243 463.7 245 491 248C518.3 251 545.7 255 573 258C600.3 261 627.7 263 654.8 273C682 283 709 301 736.2 309C763.3 317 790.7 315 818 325C845.3 335 872.7 357 886.3 368L900 379L900 215L886.3 220C872.7 225 845.3 235 818 232C790.7 229 763.3 213 736.2 200C709 187 682 177 654.8 167C627.7 157 600.3 147 573 143C545.7 139 518.3 141 491 139C463.7 137 436.3 131 409 134C381.7 137 354.3 149 327 154C299.7 159 272.3 157 245.2 147C218 137 191 119 163.8 127C136.7 135 109.3 169 82 186C54.7 203 27.3 203 13.7 203L0 203Z" fill="#3c80ff"></path><path d="M0 403L13.7 407C27.3 411 54.7 419 82 406C109.3 393 136.7 359 163.8 357C191 355 218 385 245.2 392C272.3 399 299.7 383 327 369C354.3 355 381.7 343 409 341C436.3 339 463.7 347 491 352C518.3 357 545.7 359 573 363C600.3 367 627.7 373 654.8 382C682 391 709 403 736.2 402C763.3 401 790.7 387 818 392C845.3 397 872.7 421 886.3 433L900 445L900 377L886.3 366C872.7 355 845.3 333 818 323C790.7 313 763.3 315 736.2 307C709 299 682 281 654.8 271C627.7 261 600.3 259 573 256C545.7 253 518.3 249 491 246C463.7 243 436.3 241 409 253C381.7 265 354.3 291 327 300C299.7 309 272.3 301 245.2 289C218 277 191 261 163.8 272C136.7 283 109.3 321 82 329C54.7 337 27.3 315 13.7 304L0 293Z" fill="#0066ff"></path><path d="M0 475L13.7 474C27.3 473 54.7 471 82 462C109.3 453 136.7 437 163.8 444C191 451 218 481 245.2 487C272.3 493 299.7 475 327 458C354.3 441 381.7 425 409 422C436.3 419 463.7 429 491 432C518.3 435 545.7 431 573 431C600.3 431 627.7 435 654.8 445C682 455 709 471 736.2 468C763.3 465 790.7 443 818 445C845.3 447 872.7 473 886.3 486L900 499L900 443L886.3 431C872.7 419 845.3 395 818 390C790.7 385 763.3 399 736.2 400C709 401 682 389 654.8 380C627.7 371 600.3 365 573 361C545.7 357 518.3 355 491 350C463.7 345 436.3 337 409 339C381.7 341 354.3 353 327 367C299.7 381 272.3 397 245.2 390C218 383 191 353 163.8 355C136.7 357 109.3 391 82 404C54.7 417 27.3 409 13.7 405L0 401Z" fill="#0059dd"></path><path d="M0 601L13.7 601C27.3 601 54.7 601 82 601C109.3 601 136.7 601 163.8 601C191 601 218 601 245.2 601C272.3 601 299.7 601 327 601C354.3 601 381.7 601 409 601C436.3 601 463.7 601 491 601C518.3 601 545.7 601 573 601C600.3 601 627.7 601 654.8 601C682 601 709 601 736.2 601C763.3 601 790.7 601 818 601C845.3 601 872.7 601 886.3 601L900 601L900 497L886.3 484C872.7 471 845.3 445 818 443C790.7 441 763.3 463 736.2 466C709 469 682 453 654.8 443C627.7 433 600.3 429 573 429C545.7 429 518.3 433 491 430C463.7 427 436.3 417 409 420C381.7 423 354.3 439 327 456C299.7 473 272.3 491 245.2 485C218 479 191 449 163.8 442C136.7 435 109.3 451 82 460C54.7 469 27.3 471 13.7 472L0 473Z" fill="#004cbb"></path></svg>